<svg xmlns="http://www.w3.org/2000/svg" xmlns:xlink="http://www.w3.org/1999/xlink" width="639" zoomAndPan="magnify" viewBox="0 0 479.25 172.499995" height="230" preserveAspectRatio="xMidYMid meet" version="1.0"><defs><g/><clipPath id="d6b7b17afe"><path d="M 0.320312 0 L 478.183594 0 L 478.183594 172 L 0.320312 172 Z M 0.320312 0 " clip-rule="nonzero"/></clipPath><clipPath id="90ab277d74"><path d="M 412.535156 52 L 478.183594 52 L 478.183594 112.574219 L 412.535156 112.574219 Z M 412.535156 52 " clip-rule="nonzero"/></clipPath><clipPath id="d264d13a5a"><path d="M 412.535156 66 L 477 66 L 477 112.574219 L 412.535156 112.574219 Z M 412.535156 66 " clip-rule="nonzero"/></clipPath></defs><g clip-path="url(#d6b7b17afe)"><path fill="#ffffff" d="M 0.320312 0 L 478.183594 0 L 478.183594 172 L 0.320312 172 Z M 0.320312 0 " fill-opacity="1" fill-rule="nonzero"/><path fill="#ffffff" d="M 0.320312 0 L 478.183594 0 L 478.183594 172 L 0.320312 172 Z M 0.320312 0 " fill-opacity="1" fill-rule="nonzero"/></g><g fill="#000000" fill-opacity="0.149"><g transform="translate(5.992088, 108.030966)"><g><path d="M 28.453125 -23.953125 L 14.875 -41.484375 L 28.453125 -41.484375 Z M 1.59375 0 L 1.59375 -18.90625 L 16.21875 0 Z M 13.328125 -41.328125 C 12.929688 -40.890625 12.640625 -40.460938 12.453125 -40.046875 C 12.265625 -39.628906 12.171875 -39.1875 12.171875 -38.71875 C 12.171875 -38.175781 12.320312 -37.585938 12.625 -36.953125 C 12.925781 -36.328125 13.429688 -35.554688 14.140625 -34.640625 L 26.703125 -18.484375 C 27.972656 -16.878906 28.847656 -15.414062 29.328125 -14.09375 C 29.804688 -12.78125 30.046875 -11.300781 30.046875 -9.65625 C 30.046875 -6.9375 29.128906 -4.644531 27.296875 -2.78125 C 25.460938 -0.925781 23.195312 0 20.5 0 C 20.113281 0 19.695312 -0.015625 19.25 -0.046875 C 18.800781 -0.0859375 18.300781 -0.144531 17.75 -0.21875 C 18.144531 -0.59375 18.445312 -0.976562 18.65625 -1.375 C 18.863281 -1.769531 18.96875 -2.171875 18.96875 -2.578125 C 18.96875 -3.191406 18.832031 -3.804688 18.5625 -4.421875 C 18.289062 -5.046875 17.75 -5.875 16.9375 -6.90625 L 4.4375 -22.96875 C 3.144531 -24.632812 2.253906 -26.125 1.765625 -27.4375 C 1.273438 -28.75 1.03125 -30.21875 1.03125 -31.84375 C 1.03125 -34.613281 1.96875 -36.921875 3.84375 -38.765625 C 5.71875 -40.617188 8.09375 -41.546875 10.96875 -41.546875 C 11.46875 -41.546875 12.207031 -41.472656 13.1875 -41.328125 Z M 13.328125 -41.328125 "/></g></g></g><g fill="#000000" fill-opacity="0.149"><g transform="translate(40.127997, 108.030966)"><g><path d="M 20.109375 -41.46875 C 20.359375 -41.5 20.617188 -41.519531 20.890625 -41.53125 C 21.160156 -41.539062 21.546875 -41.546875 22.046875 -41.546875 C 26.578125 -41.546875 29.910156 -40.554688 32.046875 -38.578125 C 34.191406 -36.609375 35.265625 -33.578125 35.265625 -29.484375 C 35.265625 -25.347656 34.1875 -22.289062 32.03125 -20.3125 C 29.882812 -18.332031 26.554688 -17.34375 22.046875 -17.34375 C 21.546875 -17.34375 21.160156 -17.34375 20.890625 -17.34375 C 20.617188 -17.351562 20.359375 -17.378906 20.109375 -17.421875 Z M 1.84375 0 L 1.84375 -41.484375 L 16.609375 -41.484375 L 16.609375 0 Z M 1.84375 0 "/></g></g></g><g fill="#000000" fill-opacity="0.149"><g transform="translate(79.593325, 108.030966)"><g><path d="M 17.171875 0.5 C 11.953125 0.113281 7.96875 -1.894531 5.21875 -5.53125 C 2.46875 -9.175781 1.09375 -14.242188 1.09375 -20.734375 C 1.09375 -27.242188 2.46875 -32.3125 5.21875 -35.9375 C 7.96875 -39.5625 11.953125 -41.582031 17.171875 -42 Z M 20.625 0.5 L 20.625 -42 C 25.84375 -41.582031 29.828125 -39.5625 32.578125 -35.9375 C 35.335938 -32.3125 36.71875 -27.242188 36.71875 -20.734375 C 36.71875 -14.242188 35.335938 -9.175781 32.578125 -5.53125 C 29.828125 -1.894531 25.84375 0.113281 20.625 0.5 Z M 20.625 0.5 "/></g></g></g><g fill="#000000" fill-opacity="0.149"><g transform="translate(120.909921, 108.030966)"><g><path d="M 20.109375 0 L 20.109375 -41.46875 C 20.359375 -41.5 20.617188 -41.519531 20.890625 -41.53125 C 21.160156 -41.539062 21.546875 -41.546875 22.046875 -41.546875 C 26.347656 -41.546875 29.519531 -40.6875 31.5625 -38.96875 C 33.613281 -37.257812 34.640625 -34.613281 34.640625 -31.03125 C 34.640625 -27.582031 33.664062 -24.984375 31.71875 -23.234375 C 29.78125 -21.492188 26.90625 -20.625 23.09375 -20.625 C 22.644531 -20.625 21.894531 -20.660156 20.84375 -20.734375 L 20.671875 -20.734375 L 37.109375 0 Z M 1.84375 0 L 1.84375 -41.484375 L 16.609375 -41.484375 L 16.609375 0 Z M 1.84375 0 "/></g></g></g><g fill="#000000" fill-opacity="0.149"><g transform="translate(160.375253, 108.030966)"><g><path d="M 36.1875 -41.484375 L 36.1875 -21.875 L 26.3125 -41.484375 Z M 11.078125 0 L 11.078125 -41.484375 L 25.859375 -41.484375 L 25.859375 0 Z M 0.8125 -41.484375 L 10.625 -41.484375 L 0.8125 -21.875 Z M 0.8125 -41.484375 "/></g></g></g><g fill="#000000" fill-opacity="0.149"><g transform="translate(200.934525, 108.030966)"><g/></g></g><g fill="#000000" fill-opacity="0.149"><g transform="translate(222.476185, 108.030966)"><g><path d="M 28.453125 -23.953125 L 14.875 -41.484375 L 28.453125 -41.484375 Z M 1.59375 0 L 1.59375 -18.90625 L 16.21875 0 Z M 13.328125 -41.328125 C 12.929688 -40.890625 12.640625 -40.460938 12.453125 -40.046875 C 12.265625 -39.628906 12.171875 -39.1875 12.171875 -38.71875 C 12.171875 -38.175781 12.320312 -37.585938 12.625 -36.953125 C 12.925781 -36.328125 13.429688 -35.554688 14.140625 -34.640625 L 26.703125 -18.484375 C 27.972656 -16.878906 28.847656 -15.414062 29.328125 -14.09375 C 29.804688 -12.78125 30.046875 -11.300781 30.046875 -9.65625 C 30.046875 -6.9375 29.128906 -4.644531 27.296875 -2.78125 C 25.460938 -0.925781 23.195312 0 20.5 0 C 20.113281 0 19.695312 -0.015625 19.25 -0.046875 C 18.800781 -0.0859375 18.300781 -0.144531 17.75 -0.21875 C 18.144531 -0.59375 18.445312 -0.976562 18.65625 -1.375 C 18.863281 -1.769531 18.96875 -2.171875 18.96875 -2.578125 C 18.96875 -3.191406 18.832031 -3.804688 18.5625 -4.421875 C 18.289062 -5.046875 17.75 -5.875 16.9375 -6.90625 L 4.4375 -22.96875 C 3.144531 -24.632812 2.253906 -26.125 1.765625 -27.4375 C 1.273438 -28.75 1.03125 -30.21875 1.03125 -31.84375 C 1.03125 -34.613281 1.96875 -36.921875 3.84375 -38.765625 C 5.71875 -40.617188 8.09375 -41.546875 10.96875 -41.546875 C 11.46875 -41.546875 12.207031 -41.472656 13.1875 -41.328125 Z M 13.328125 -41.328125 "/></g></g></g><g fill="#000000" fill-opacity="0.149"><g transform="translate(256.612082, 108.030966)"><g><path d="M 1.84375 0 L 1.84375 -41.484375 L 16.609375 -41.484375 L 16.609375 -24.0625 L 20.34375 -24.0625 L 20.34375 -41.484375 L 35.09375 -41.484375 L 35.09375 0 L 20.34375 0 L 20.34375 -20.34375 L 16.609375 -20.34375 L 16.609375 0 Z M 1.84375 0 "/></g></g></g><g fill="#000000" fill-opacity="0.149"><g transform="translate(297.171355, 108.030966)"><g><path d="M 17.171875 0.5 C 11.953125 0.113281 7.96875 -1.894531 5.21875 -5.53125 C 2.46875 -9.175781 1.09375 -14.242188 1.09375 -20.734375 C 1.09375 -27.242188 2.46875 -32.3125 5.21875 -35.9375 C 7.96875 -39.5625 11.953125 -41.582031 17.171875 -42 Z M 20.625 0.5 L 20.625 -42 C 25.84375 -41.582031 29.828125 -39.5625 32.578125 -35.9375 C 35.335938 -32.3125 36.71875 -27.242188 36.71875 -20.734375 C 36.71875 -14.242188 35.335938 -9.175781 32.578125 -5.53125 C 29.828125 -1.894531 25.84375 0.113281 20.625 0.5 Z M 20.625 0.5 "/></g></g></g><g fill="#000000" fill-opacity="0.149"><g transform="translate(338.487945, 108.030966)"><g><path d="M 16.390625 0 L 1.84375 0 L 1.84375 -41.484375 L 16.390625 -41.484375 Z M 17.59375 -41.484375 L 31.953125 -41.484375 L 31.953125 -25.5 Z M 26.484375 -13.046875 L 17.421875 -21.59375 L 26.484375 -30.15625 Z M 17.59375 0 L 32.171875 -18.6875 L 32.171875 0 Z M 17.59375 0 "/></g></g></g><g fill="#000000" fill-opacity="0.149"><g transform="translate(375.821509, 108.030966)"><g><path d="M 28.453125 -23.953125 L 14.875 -41.484375 L 28.453125 -41.484375 Z M 1.59375 0 L 1.59375 -18.90625 L 16.21875 0 Z M 13.328125 -41.328125 C 12.929688 -40.890625 12.640625 -40.460938 12.453125 -40.046875 C 12.265625 -39.628906 12.171875 -39.1875 12.171875 -38.71875 C 12.171875 -38.175781 12.320312 -37.585938 12.625 -36.953125 C 12.925781 -36.328125 13.429688 -35.554688 14.140625 -34.640625 L 26.703125 -18.484375 C 27.972656 -16.878906 28.847656 -15.414062 29.328125 -14.09375 C 29.804688 -12.78125 30.046875 -11.300781 30.046875 -9.65625 C 30.046875 -6.9375 29.128906 -4.644531 27.296875 -2.78125 C 25.460938 -0.925781 23.195312 0 20.5 0 C 20.113281 0 19.695312 -0.015625 19.25 -0.046875 C 18.800781 -0.0859375 18.300781 -0.144531 17.75 -0.21875 C 18.144531 -0.59375 18.445312 -0.976562 18.65625 -1.375 C 18.863281 -1.769531 18.96875 -2.171875 18.96875 -2.578125 C 18.96875 -3.191406 18.832031 -3.804688 18.5625 -4.421875 C 18.289062 -5.046875 17.75 -5.875 16.9375 -6.90625 L 4.4375 -22.96875 C 3.144531 -24.632812 2.253906 -26.125 1.765625 -27.4375 C 1.273438 -28.75 1.03125 -30.21875 1.03125 -31.84375 C 1.03125 -34.613281 1.96875 -36.921875 3.84375 -38.765625 C 5.71875 -40.617188 8.09375 -41.546875 10.96875 -41.546875 C 11.46875 -41.546875 12.207031 -41.472656 13.1875 -41.328125 Z M 13.328125 -41.328125 "/></g></g></g><g fill="#000000" fill-opacity="1"><g transform="translate(2.099584, 105.202897)"><g><path d="M 28.453125 -23.953125 L 14.875 -41.484375 L 28.453125 -41.484375 Z M 1.59375 0 L 1.59375 -18.90625 L 16.21875 0 Z M 13.328125 -41.328125 C 12.929688 -40.890625 12.640625 -40.460938 12.453125 -40.046875 C 12.265625 -39.628906 12.171875 -39.1875 12.171875 -38.71875 C 12.171875 -38.175781 12.320312 -37.585938 12.625 -36.953125 C 12.925781 -36.328125 13.429688 -35.554688 14.140625 -34.640625 L 26.703125 -18.484375 C 27.972656 -16.878906 28.847656 -15.414062 29.328125 -14.09375 C 29.804688 -12.78125 30.046875 -11.300781 30.046875 -9.65625 C 30.046875 -6.9375 29.128906 -4.644531 27.296875 -2.78125 C 25.460938 -0.925781 23.195312 0 20.5 0 C 20.113281 0 19.695312 -0.015625 19.25 -0.046875 C 18.800781 -0.0859375 18.300781 -0.144531 17.75 -0.21875 C 18.144531 -0.59375 18.445312 -0.976562 18.65625 -1.375 C 18.863281 -1.769531 18.96875 -2.171875 18.96875 -2.578125 C 18.96875 -3.191406 18.832031 -3.804688 18.5625 -4.421875 C 18.289062 -5.046875 17.75 -5.875 16.9375 -6.90625 L 4.4375 -22.96875 C 3.144531 -24.632812 2.253906 -26.125 1.765625 -27.4375 C 1.273438 -28.75 1.03125 -30.21875 1.03125 -31.84375 C 1.03125 -34.613281 1.96875 -36.921875 3.84375 -38.765625 C 5.71875 -40.617188 8.09375 -41.546875 10.96875 -41.546875 C 11.46875 -41.546875 12.207031 -41.472656 13.1875 -41.328125 Z M 13.328125 -41.328125 "/></g></g></g><g fill="#000000" fill-opacity="1"><g transform="translate(36.235493, 105.202897)"><g><path d="M 20.109375 -41.46875 C 20.359375 -41.5 20.617188 -41.519531 20.890625 -41.53125 C 21.160156 -41.539062 21.546875 -41.546875 22.046875 -41.546875 C 26.578125 -41.546875 29.910156 -40.554688 32.046875 -38.578125 C 34.191406 -36.609375 35.265625 -33.578125 35.265625 -29.484375 C 35.265625 -25.347656 34.1875 -22.289062 32.03125 -20.3125 C 29.882812 -18.332031 26.554688 -17.34375 22.046875 -17.34375 C 21.546875 -17.34375 21.160156 -17.34375 20.890625 -17.34375 C 20.617188 -17.351562 20.359375 -17.378906 20.109375 -17.421875 Z M 1.84375 0 L 1.84375 -41.484375 L 16.609375 -41.484375 L 16.609375 0 Z M 1.84375 0 "/></g></g></g><g fill="#000000" fill-opacity="1"><g transform="translate(75.700822, 105.202897)"><g><path d="M 17.171875 0.5 C 11.953125 0.113281 7.96875 -1.894531 5.21875 -5.53125 C 2.46875 -9.175781 1.09375 -14.242188 1.09375 -20.734375 C 1.09375 -27.242188 2.46875 -32.3125 5.21875 -35.9375 C 7.96875 -39.5625 11.953125 -41.582031 17.171875 -42 Z M 20.625 0.5 L 20.625 -42 C 25.84375 -41.582031 29.828125 -39.5625 32.578125 -35.9375 C 35.335938 -32.3125 36.71875 -27.242188 36.71875 -20.734375 C 36.71875 -14.242188 35.335938 -9.175781 32.578125 -5.53125 C 29.828125 -1.894531 25.84375 0.113281 20.625 0.5 Z M 20.625 0.5 "/></g></g></g><g fill="#000000" fill-opacity="1"><g transform="translate(117.017418, 105.202897)"><g><path d="M 20.109375 0 L 20.109375 -41.46875 C 20.359375 -41.5 20.617188 -41.519531 20.890625 -41.53125 C 21.160156 -41.539062 21.546875 -41.546875 22.046875 -41.546875 C 26.347656 -41.546875 29.519531 -40.6875 31.5625 -38.96875 C 33.613281 -37.257812 34.640625 -34.613281 34.640625 -31.03125 C 34.640625 -27.582031 33.664062 -24.984375 31.71875 -23.234375 C 29.78125 -21.492188 26.90625 -20.625 23.09375 -20.625 C 22.644531 -20.625 21.894531 -20.660156 20.84375 -20.734375 L 20.671875 -20.734375 L 37.109375 0 Z M 1.84375 0 L 1.84375 -41.484375 L 16.609375 -41.484375 L 16.609375 0 Z M 1.84375 0 "/></g></g></g><g fill="#000000" fill-opacity="1"><g transform="translate(156.482749, 105.202897)"><g><path d="M 36.1875 -41.484375 L 36.1875 -21.875 L 26.3125 -41.484375 Z M 11.078125 0 L 11.078125 -41.484375 L 25.859375 -41.484375 L 25.859375 0 Z M 0.8125 -41.484375 L 10.625 -41.484375 L 0.8125 -21.875 Z M 0.8125 -41.484375 "/></g></g></g><g fill="#000000" fill-opacity="1"><g transform="translate(197.042022, 105.202897)"><g/></g></g><g fill="#000000" fill-opacity="1"><g transform="translate(218.583681, 105.202897)"><g><path d="M 28.453125 -23.953125 L 14.875 -41.484375 L 28.453125 -41.484375 Z M 1.59375 0 L 1.59375 -18.90625 L 16.21875 0 Z M 13.328125 -41.328125 C 12.929688 -40.890625 12.640625 -40.460938 12.453125 -40.046875 C 12.265625 -39.628906 12.171875 -39.1875 12.171875 -38.71875 C 12.171875 -38.175781 12.320312 -37.585938 12.625 -36.953125 C 12.925781 -36.328125 13.429688 -35.554688 14.140625 -34.640625 L 26.703125 -18.484375 C 27.972656 -16.878906 28.847656 -15.414062 29.328125 -14.09375 C 29.804688 -12.78125 30.046875 -11.300781 30.046875 -9.65625 C 30.046875 -6.9375 29.128906 -4.644531 27.296875 -2.78125 C 25.460938 -0.925781 23.195312 0 20.5 0 C 20.113281 0 19.695312 -0.015625 19.25 -0.046875 C 18.800781 -0.0859375 18.300781 -0.144531 17.75 -0.21875 C 18.144531 -0.59375 18.445312 -0.976562 18.65625 -1.375 C 18.863281 -1.769531 18.96875 -2.171875 18.96875 -2.578125 C 18.96875 -3.191406 18.832031 -3.804688 18.5625 -4.421875 C 18.289062 -5.046875 17.75 -5.875 16.9375 -6.90625 L 4.4375 -22.96875 C 3.144531 -24.632812 2.253906 -26.125 1.765625 -27.4375 C 1.273438 -28.75 1.03125 -30.21875 1.03125 -31.84375 C 1.03125 -34.613281 1.96875 -36.921875 3.84375 -38.765625 C 5.71875 -40.617188 8.09375 -41.546875 10.96875 -41.546875 C 11.46875 -41.546875 12.207031 -41.472656 13.1875 -41.328125 Z M 13.328125 -41.328125 "/></g></g></g><g fill="#000000" fill-opacity="1"><g transform="translate(252.719579, 105.202897)"><g><path d="M 1.84375 0 L 1.84375 -41.484375 L 16.609375 -41.484375 L 16.609375 -24.0625 L 20.34375 -24.0625 L 20.34375 -41.484375 L 35.09375 -41.484375 L 35.09375 0 L 20.34375 0 L 20.34375 -20.34375 L 16.609375 -20.34375 L 16.609375 0 Z M 1.84375 0 "/></g></g></g><g fill="#000000" fill-opacity="1"><g transform="translate(293.278852, 105.202897)"><g><path d="M 17.171875 0.5 C 11.953125 0.113281 7.96875 -1.894531 5.21875 -5.53125 C 2.46875 -9.175781 1.09375 -14.242188 1.09375 -20.734375 C 1.09375 -27.242188 2.46875 -32.3125 5.21875 -35.9375 C 7.96875 -39.5625 11.953125 -41.582031 17.171875 -42 Z M 20.625 0.5 L 20.625 -42 C 25.84375 -41.582031 29.828125 -39.5625 32.578125 -35.9375 C 35.335938 -32.3125 36.71875 -27.242188 36.71875 -20.734375 C 36.71875 -14.242188 35.335938 -9.175781 32.578125 -5.53125 C 29.828125 -1.894531 25.84375 0.113281 20.625 0.5 Z M 20.625 0.5 "/></g></g></g><g fill="#000000" fill-opacity="1"><g transform="translate(334.595441, 105.202897)"><g><path d="M 16.390625 0 L 1.84375 0 L 1.84375 -41.484375 L 16.390625 -41.484375 Z M 17.59375 -41.484375 L 31.953125 -41.484375 L 31.953125 -25.5 Z M 26.484375 -13.046875 L 17.421875 -21.59375 L 26.484375 -30.15625 Z M 17.59375 0 L 32.171875 -18.6875 L 32.171875 0 Z M 17.59375 0 "/></g></g></g><g fill="#000000" fill-opacity="1"><g transform="translate(371.929005, 105.202897)"><g><path d="M 28.453125 -23.953125 L 14.875 -41.484375 L 28.453125 -41.484375 Z M 1.59375 0 L 1.59375 -18.90625 L 16.21875 0 Z M 13.328125 -41.328125 C 12.929688 -40.890625 12.640625 -40.460938 12.453125 -40.046875 C 12.265625 -39.628906 12.171875 -39.1875 12.171875 -38.71875 C 12.171875 -38.175781 12.320312 -37.585938 12.625 -36.953125 C 12.925781 -36.328125 13.429688 -35.554688 14.140625 -34.640625 L 26.703125 -18.484375 C 27.972656 -16.878906 28.847656 -15.414062 29.328125 -14.09375 C 29.804688 -12.78125 30.046875 -11.300781 30.046875 -9.65625 C 30.046875 -6.9375 29.128906 -4.644531 27.296875 -2.78125 C 25.460938 -0.925781 23.195312 0 20.5 0 C 20.113281 0 19.695312 -0.015625 19.25 -0.046875 C 18.800781 -0.0859375 18.300781 -0.144531 17.75 -0.21875 C 18.144531 -0.59375 18.445312 -0.976562 18.65625 -1.375 C 18.863281 -1.769531 18.96875 -2.171875 18.96875 -2.578125 C 18.96875 -3.191406 18.832031 -3.804688 18.5625 -4.421875 C 18.289062 -5.046875 17.75 -5.875 16.9375 -6.90625 L 4.4375 -22.96875 C 3.144531 -24.632812 2.253906 -26.125 1.765625 -27.4375 C 1.273438 -28.75 1.03125 -30.21875 1.03125 -31.84375 C 1.03125 -34.613281 1.96875 -36.921875 3.84375 -38.765625 C 5.71875 -40.617188 8.09375 -41.546875 10.96875 -41.546875 C 11.46875 -41.546875 12.207031 -41.472656 13.1875 -41.328125 Z M 13.328125 -41.328125 "/></g></g></g><g clip-path="url(#90ab277d74)"><path fill="#000000" d="M 413.679688 72.8125 C 416.011719 70.03125 417.230469 66.585938 418.9375 63.425781 C 419.773438 61.820312 420.824219 60.367188 422.085938 59.070312 C 423.386719 57.757812 424.871094 56.648438 426.390625 55.601562 C 427.148438 55.082031 427.917969 54.574219 428.683594 54.0625 C 429.058594 53.816406 429.421875 53.539062 429.855469 53.40625 C 430.273438 53.277344 430.691406 53.269531 431.113281 53.382812 C 431.738281 53.5625 432.039062 54.019531 432.1875 54.628906 C 432.378906 55.4375 432.425781 56.28125 432.578125 57.097656 C 432.773438 58.136719 433.027344 59.164062 433.339844 60.171875 C 433.625 61.082031 433.921875 62.023438 434.394531 62.851562 C 435.382812 64.597656 437.320312 65.148438 439.132812 65.664062 C 441.144531 66.230469 443.191406 66.597656 445.277344 66.769531 C 447.167969 66.925781 449.128906 66.855469 450.933594 67.523438 C 454.191406 68.730469 455.433594 72.46875 456.824219 75.316406 C 458.550781 78.832031 460.523438 82.203125 462.742188 85.429688 C 464.945312 88.65625 467.347656 91.75 469.859375 94.75 C 471.105469 96.230469 472.390625 97.675781 473.667969 99.128906 C 474.828125 100.445312 476 101.859375 476.597656 103.535156 C 477.097656 104.960938 477.074219 106.441406 476.3125 107.773438 C 475.671875 108.894531 474.53125 109.777344 473.179688 109.554688 C 472.28125 109.410156 471.4375 109.015625 470.523438 109.015625 C 469.679688 109.027344 469.03125 109.441406 468.527344 110.09375 C 468.25 110.449219 467.886719 111.167969 467.425781 111.230469 C 466.550781 111.359375 466.527344 109.921875 466.488281 109.382812 C 466.4375 108.53125 466.269531 107.738281 465.660156 107.105469 C 465.101562 106.539062 464.429688 106.222656 463.640625 106.15625 C 462.871094 106.089844 462.179688 106.375 461.570312 106.824219 C 461.109375 107.164062 460.449219 107.875 459.804688 107.675781 C 459.023438 107.429688 458.96875 106.316406 458.910156 105.644531 C 458.820312 104.726562 458.648438 103.898438 458.035156 103.179688 C 457.496094 102.5625 456.757812 102.148438 456.03125 101.800781 C 455.613281 101.597656 455.164062 101.34375 454.683594 101.359375 C 454.234375 101.390625 453.875 101.585938 453.605469 101.949219 C 453.207031 102.445312 453.007812 102.960938 452.339844 103.078125 C 451.835938 103.152344 451.375 103.042969 450.957031 102.746094 C 450.328125 102.28125 450.441406 101.59375 450.464844 100.875 C 450.492188 99.980469 450.214844 99.191406 449.640625 98.503906 C 449.121094 97.851562 448.425781 97.347656 447.726562 96.890625 C 446.933594 96.371094 446.136719 95.867188 445.355469 95.328125 C 443.738281 94.21875 442.160156 93.046875 440.589844 91.867188 C 437.457031 89.507812 434.355469 87.09375 431.027344 85.015625 C 430.21875 84.476562 429.378906 83.988281 428.515625 83.542969 C 427.90625 83.25 427.457031 83.980469 427.117188 84.375 C 427.046875 84.457031 426.96875 84.535156 426.898438 84.613281 C 426.828125 84.695312 426.839844 84.660156 426.910156 84.613281 C 427.078125 84.511719 426.816406 84.660156 426.761719 84.699219 C 426.484375 84.917969 426.257812 85.183594 426.089844 85.5 C 425.960938 85.710938 425.882812 85.886719 425.628906 85.9375 C 425.328125 85.976562 425.035156 85.941406 424.753906 85.832031 C 424.0625 85.605469 423.445312 85.246094 422.902344 84.757812 C 422.332031 84.25 422.070312 83.683594 422.378906 82.945312 C 422.691406 82.207031 423.171875 81.605469 423.199219 80.792969 C 423.230469 79.878906 422.574219 79.03125 421.890625 78.492188 C 421.210938 77.921875 420.429688 77.640625 419.542969 77.636719 C 418.738281 77.65625 418.148438 78.015625 417.660156 78.628906 C 417.46875 78.875 417.292969 79.128906 417.136719 79.394531 C 417.089844 79.476562 417.039062 79.558594 417 79.644531 C 416.957031 79.726562 416.972656 79.699219 417 79.664062 C 416.851562 79.847656 416.6875 80.015625 416.503906 80.164062 C 416.464844 80.195312 416.421875 80.226562 416.378906 80.25 C 416.320312 80.285156 416.308594 80.292969 416.308594 80.289062 C 416.296875 80.257812 416.488281 80.34375 416.472656 80.3125 C 416.460938 80.28125 416.359375 80.234375 416.328125 80.210938 C 415.789062 79.835938 415.277344 79.425781 414.769531 79.015625 C 414.425781 78.734375 413.730469 78.296875 413.769531 77.84375 C 413.832031 77.53125 413.933594 77.226562 414.070312 76.933594 C 414.214844 76.542969 414.398438 76.167969 414.625 75.816406 C 414.953125 75.3125 415.34375 74.722656 415.359375 74.101562 C 415.375 73.753906 415.15625 73.585938 414.894531 73.421875 C 414.835938 73.390625 414.78125 73.347656 414.726562 73.308594 C 414.804688 73.371094 414.726562 73.308594 414.691406 73.277344 C 414.65625 73.242188 414.605469 73.199219 414.5625 73.15625 C 414.289062 72.882812 414.039062 72.589844 413.816406 72.273438 C 413.738281 72.148438 413.628906 72.066406 413.488281 72.03125 C 413.347656 71.992188 413.210938 72.007812 413.082031 72.082031 C 412.953125 72.15625 412.871094 72.265625 412.832031 72.40625 C 412.792969 72.550781 412.8125 72.6875 412.886719 72.816406 C 413.238281 73.339844 413.65625 73.804688 414.144531 74.203125 C 414.226562 74.269531 414.316406 74.328125 414.410156 74.382812 C 414.433594 74.402344 414.460938 74.414062 414.488281 74.429688 C 414.355469 74.339844 414.289062 74.214844 414.28125 74.058594 C 414.28125 74.113281 414.328125 73.890625 414.28125 74.03125 C 414.269531 74.082031 414.257812 74.132812 414.246094 74.183594 C 414.152344 74.5 414.011719 74.789062 413.824219 75.0625 C 413.636719 75.332031 413.46875 75.617188 413.316406 75.910156 C 413.148438 76.253906 413.03125 76.625 412.898438 76.984375 C 412.6875 77.546875 412.585938 78.128906 412.898438 78.675781 C 413.164062 79.148438 413.648438 79.492188 414.0625 79.828125 C 414.523438 80.199219 414.988281 80.5625 415.464844 80.917969 C 415.625 81.046875 415.789062 81.160156 415.964844 81.265625 C 416.261719 81.410156 416.554688 81.398438 416.839844 81.226562 C 417.210938 81.011719 417.523438 80.734375 417.78125 80.394531 C 418.007812 80.109375 418.15625 79.765625 418.363281 79.46875 C 418.652344 79.066406 418.953125 78.75 419.441406 78.71875 C 420.125 78.695312 420.722656 78.902344 421.234375 79.351562 C 421.691406 79.730469 422.214844 80.316406 422.097656 80.957031 C 421.976562 81.59375 421.527344 82.140625 421.304688 82.75 C 420.765625 84.203125 421.761719 85.359375 422.917969 86.113281 C 423.914062 86.769531 425.714844 87.640625 426.710938 86.519531 C 426.910156 86.296875 427.023438 86.007812 427.207031 85.773438 C 427.230469 85.746094 427.4375 85.535156 427.3125 85.617188 C 427.425781 85.5625 427.53125 85.496094 427.632812 85.417969 C 427.804688 85.246094 427.964844 85.066406 428.113281 84.878906 C 428.195312 84.785156 428.277344 84.691406 428.363281 84.597656 C 428.398438 84.570312 428.429688 84.539062 428.457031 84.507812 C 428.515625 84.425781 428.355469 84.546875 428.375 84.542969 L 428.085938 84.542969 C 428.21875 84.609375 428.347656 84.6875 428.472656 84.769531 L 428.96875 85.054688 C 429.328125 85.261719 429.683594 85.476562 430.042969 85.695312 C 430.726562 86.113281 431.398438 86.542969 432.0625 86.984375 C 433.390625 87.871094 434.6875 88.804688 435.976562 89.753906 C 438.519531 91.636719 441.007812 93.59375 443.589844 95.429688 C 444.847656 96.324219 446.144531 97.136719 447.417969 98 C 447.960938 98.34375 448.441406 98.761719 448.855469 99.253906 C 449.261719 99.773438 449.4375 100.363281 449.382812 101.019531 C 449.351562 101.699219 449.320312 102.390625 449.707031 102.980469 C 450.023438 103.449219 450.441406 103.78125 450.964844 103.984375 C 451.902344 104.367188 453.117188 104.257812 453.835938 103.492188 C 454.023438 103.261719 454.199219 103.023438 454.359375 102.773438 C 454.539062 102.523438 454.671875 102.414062 454.984375 102.523438 C 455.617188 102.753906 456.203125 103.070312 456.746094 103.46875 C 457.273438 103.835938 457.609375 104.335938 457.746094 104.964844 C 457.898438 105.664062 457.855469 106.386719 458.058594 107.074219 C 458.257812 107.761719 458.695312 108.421875 459.398438 108.6875 C 460.011719 108.925781 460.65625 108.78125 461.203125 108.453125 C 461.75 108.125 462.160156 107.664062 462.71875 107.398438 C 463.203125 107.1875 463.691406 107.1875 464.179688 107.390625 C 464.679688 107.574219 465.035156 107.910156 465.253906 108.394531 C 465.515625 109.027344 465.414062 109.78125 465.527344 110.445312 C 465.644531 111.144531 466 111.859375 466.671875 112.167969 C 466.964844 112.300781 467.273438 112.347656 467.59375 112.300781 C 467.914062 112.253906 468.195312 112.121094 468.4375 111.910156 C 468.847656 111.574219 469.105469 111.097656 469.441406 110.695312 C 469.605469 110.472656 469.820312 110.308594 470.078125 110.207031 C 470.335938 110.105469 470.601562 110.078125 470.875 110.128906 C 471.59375 110.21875 472.28125 110.511719 473.003906 110.621094 C 473.589844 110.722656 474.167969 110.683594 474.738281 110.503906 C 477.070312 109.734375 478.3125 106.960938 477.984375 104.644531 C 477.566406 101.695312 475.359375 99.425781 473.46875 97.285156 C 469.273438 92.554688 465.316406 87.59375 461.929688 82.246094 C 460.230469 79.566406 458.699219 76.792969 457.34375 73.925781 C 456.21875 71.527344 455.097656 68.925781 452.859375 67.347656 C 450.265625 65.523438 446.832031 65.953125 443.84375 65.558594 C 442.167969 65.332031 440.523438 64.972656 438.90625 64.480469 C 438.164062 64.285156 437.445312 64.019531 436.753906 63.6875 C 436.125 63.367188 435.644531 62.894531 435.308594 62.273438 C 434.964844 61.601562 434.691406 60.90625 434.480469 60.1875 C 434.214844 59.375 433.992188 58.550781 433.808594 57.714844 C 433.632812 56.917969 433.492188 56.117188 433.390625 55.308594 C 433.34375 54.738281 433.214844 54.1875 432.996094 53.660156 C 432.417969 52.402344 430.886719 52.003906 429.628906 52.359375 C 428.890625 52.566406 428.28125 53.050781 427.65625 53.46875 C 427.03125 53.882812 426.402344 54.308594 425.769531 54.738281 C 423.296875 56.441406 420.953125 58.324219 419.25 60.832031 C 417.609375 63.246094 416.558594 65.992188 415.207031 68.5625 C 414.570312 69.808594 413.8125 70.972656 412.929688 72.054688 C 412.828125 72.160156 412.777344 72.289062 412.777344 72.433594 C 412.777344 72.582031 412.828125 72.707031 412.929688 72.816406 C 413.035156 72.921875 413.160156 72.972656 413.3125 72.972656 C 413.460938 72.972656 413.585938 72.921875 413.691406 72.816406 Z M 413.679688 72.8125 " fill-opacity="1" fill-rule="nonzero"/></g><path fill="#000000" d="M 470.863281 94.269531 C 467.429688 90.195312 464.203125 85.933594 461.40625 81.394531 C 460.003906 79.136719 458.730469 76.808594 457.574219 74.414062 C 456.589844 72.363281 455.714844 70.191406 454.167969 68.484375 C 453.238281 67.457031 452.109375 66.738281 450.78125 66.335938 C 449.347656 65.898438 447.820312 65.847656 446.332031 65.761719 C 446.125 65.761719 445.972656 65.851562 445.867188 66.03125 C 445.765625 66.210938 445.765625 66.390625 445.871094 66.570312 L 454.488281 80.878906 C 455.191406 82.042969 455.90625 83.210938 456.574219 84.386719 C 457.214844 85.519531 457.789062 86.6875 458.292969 87.886719 C 458.753906 88.976562 459.214844 90.082031 459.917969 91.042969 C 460.609375 91.980469 461.449219 92.746094 462.449219 93.347656 C 464.855469 94.816406 467.710938 95.167969 470.476562 95.1875 C 471.167969 95.1875 471.171875 94.113281 470.476562 94.113281 C 468.105469 94.097656 465.671875 93.847656 463.542969 92.730469 C 462.59375 92.246094 461.769531 91.597656 461.074219 90.789062 C 460.332031 89.910156 459.855469 88.820312 459.40625 87.773438 C 458.910156 86.613281 458.398438 85.472656 457.789062 84.367188 C 457.152344 83.210938 456.464844 82.082031 455.78125 80.949219 C 454.367188 78.605469 452.953125 76.257812 451.535156 73.914062 L 446.796875 66.035156 L 446.332031 66.84375 C 447.609375 66.917969 448.90625 66.960938 450.152344 67.285156 C 451.28125 67.5625 452.257812 68.105469 453.089844 68.914062 C 454.65625 70.449219 455.523438 72.5625 456.445312 74.519531 C 458.6875 79.28125 461.46875 83.769531 464.578125 88.015625 C 466.332031 90.421875 468.1875 92.753906 470.109375 95.03125 C 470.214844 95.136719 470.34375 95.1875 470.492188 95.1875 C 470.640625 95.1875 470.765625 95.136719 470.871094 95.03125 C 470.972656 94.921875 471.023438 94.796875 471.019531 94.648438 C 471.019531 94.5 470.964844 94.375 470.863281 94.269531 Z M 470.863281 94.269531 " fill-opacity="1" fill-rule="nonzero"/><path fill="#000000" d="M 445.636719 66.800781 C 446.8125 66.882812 447.996094 66.898438 449.160156 67.082031 C 450.335938 67.234375 451.414062 67.648438 452.390625 68.324219 C 452.746094 68.585938 453.351562 68.144531 453.179688 67.714844 L 451.65625 63.925781 C 451.402344 63.296875 451.152344 62.664062 450.898438 62.035156 C 450.722656 61.546875 450.496094 61.085938 450.210938 60.652344 C 449.902344 60.179688 449.484375 59.847656 448.953125 59.648438 C 448.332031 59.460938 447.726562 59.515625 447.148438 59.8125 C 446.621094 60.078125 446.152344 60.421875 445.738281 60.84375 C 445.285156 61.273438 444.859375 61.738281 444.4375 62.191406 C 443.464844 63.257812 442.5625 64.378906 441.726562 65.554688 C 441.683594 65.625 441.660156 65.703125 441.65625 65.785156 C 441.648438 65.867188 441.660156 65.949219 441.695312 66.027344 C 441.726562 66.105469 441.773438 66.167969 441.835938 66.226562 C 441.894531 66.28125 441.96875 66.320312 442.046875 66.34375 C 443.234375 66.558594 444.433594 66.710938 445.636719 66.800781 C 445.785156 66.800781 445.910156 66.75 446.015625 66.644531 C 446.121094 66.539062 446.175781 66.410156 446.175781 66.261719 C 446.175781 66.113281 446.121094 65.988281 446.015625 65.882812 C 445.910156 65.777344 445.785156 65.726562 445.636719 65.726562 C 444.53125 65.644531 443.433594 65.503906 442.34375 65.304688 L 442.664062 66.097656 C 443.328125 65.164062 444.039062 64.265625 444.796875 63.40625 C 445.183594 62.964844 445.582031 62.535156 445.996094 62.113281 C 446.351562 61.71875 446.746094 61.359375 447.171875 61.039062 C 447.53125 60.796875 447.964844 60.558594 448.402344 60.609375 C 448.785156 60.671875 449.078125 60.867188 449.285156 61.191406 C 449.523438 61.542969 449.71875 61.917969 449.867188 62.3125 C 450.097656 62.890625 450.324219 63.464844 450.558594 64.042969 C 451.082031 65.359375 451.609375 66.671875 452.136719 67.988281 L 452.925781 67.378906 C 450.800781 65.847656 448.140625 65.886719 445.636719 65.710938 C 445.488281 65.710938 445.359375 65.765625 445.253906 65.871094 C 445.152344 65.976562 445.097656 66.101562 445.097656 66.25 C 445.097656 66.402344 445.148438 66.527344 445.253906 66.636719 C 445.359375 66.742188 445.488281 66.796875 445.636719 66.800781 Z M 445.636719 66.800781 " fill-opacity="1" fill-rule="nonzero"/><g clip-path="url(#d264d13a5a)"><path fill="#000000" d="M 476.140625 108.730469 C 473.914062 107.738281 471.554688 107.082031 469.335938 106.078125 C 467.070312 105.050781 465.03125 103.601562 463.015625 102.167969 C 458.738281 99.132812 454.433594 96.140625 450.207031 93.035156 C 448.140625 91.523438 446.144531 89.925781 444.121094 88.355469 C 443.121094 87.574219 442.105469 86.816406 441.046875 86.121094 C 439.992188 85.429688 438.839844 84.78125 437.703125 84.171875 C 433.804688 82.085938 429.921875 79.992188 426.363281 77.347656 C 423.003906 74.851562 419.925781 71.875 417.730469 68.285156 C 417.457031 67.839844 417.191406 67.390625 416.953125 66.917969 C 416.773438 66.578125 416.199219 66.558594 416.023438 66.917969 C 415.148438 68.710938 414.210938 70.515625 412.917969 72.054688 C 412.734375 72.253906 412.707031 72.46875 412.835938 72.707031 C 413.132812 73.242188 413.515625 73.699219 413.992188 74.082031 C 414.109375 74.179688 414.234375 74.269531 414.363281 74.351562 C 414.398438 74.375 414.433594 74.394531 414.46875 74.414062 C 414.578125 74.457031 414.355469 74.285156 414.351562 74.28125 C 414.285156 74.183594 414.269531 74.082031 414.300781 73.96875 C 414.285156 74.011719 414.277344 74.054688 414.269531 74.097656 C 414.199219 74.378906 414.089844 74.644531 413.933594 74.890625 C 413.753906 75.203125 413.53125 75.496094 413.363281 75.816406 C 413.207031 76.152344 413.074219 76.496094 412.953125 76.84375 C 412.734375 77.417969 412.570312 78.003906 412.859375 78.589844 C 413.097656 79.070312 413.5625 79.414062 413.972656 79.742188 C 414.433594 80.121094 414.90625 80.492188 415.386719 80.847656 C 415.773438 81.136719 416.148438 81.484375 416.667969 81.300781 C 417.109375 81.144531 417.484375 80.761719 417.769531 80.402344 C 418 80.125 418.144531 79.78125 418.351562 79.484375 C 418.640625 79.074219 418.945312 78.75 419.429688 78.710938 C 420.085938 78.679688 420.667969 78.875 421.175781 79.292969 C 421.621094 79.640625 422.175781 80.238281 422.109375 80.851562 C 422.046875 81.460938 421.574219 82.054688 421.339844 82.632812 C 421.050781 83.316406 421.078125 83.988281 421.425781 84.644531 C 421.742188 85.246094 422.300781 85.695312 422.859375 86.066406 C 423.851562 86.730469 425.71875 87.664062 426.71875 86.511719 C 426.914062 86.285156 427.027344 86.003906 427.214844 85.765625 C 427.234375 85.742188 427.4375 85.523438 427.316406 85.609375 C 427.4375 85.546875 427.554688 85.472656 427.660156 85.390625 C 427.828125 85.230469 427.96875 85.042969 428.121094 84.867188 C 428.199219 84.777344 428.277344 84.6875 428.363281 84.59375 C 428.402344 84.5625 428.4375 84.527344 428.46875 84.488281 C 428.515625 84.410156 428.371094 84.535156 428.378906 84.53125 L 428.09375 84.53125 C 428.324219 84.640625 428.546875 84.769531 428.757812 84.914062 C 429.046875 85.082031 429.332031 85.25 429.621094 85.421875 C 430.160156 85.746094 430.695312 86.078125 431.226562 86.421875 C 432.285156 87.105469 433.324219 87.820312 434.351562 88.554688 C 436.40625 90.027344 438.410156 91.574219 440.433594 93.09375 C 442.457031 94.613281 444.5 96.105469 446.625 97.472656 C 447.480469 98.019531 448.4375 98.574219 449 99.445312 C 449.289062 99.878906 449.417969 100.359375 449.390625 100.878906 C 449.371094 101.453125 449.300781 102.039062 449.523438 102.585938 C 450.164062 104.175781 452.542969 104.738281 453.78125 103.511719 C 454.074219 103.222656 454.230469 102.734375 454.570312 102.496094 C 454.746094 102.371094 454.972656 102.496094 455.152344 102.570312 C 455.390625 102.675781 455.628906 102.792969 455.871094 102.914062 C 456.796875 103.394531 457.574219 103.988281 457.769531 105.066406 C 457.96875 106.140625 457.851562 107.441406 458.761719 108.269531 C 459.199219 108.679688 459.714844 108.84375 460.3125 108.765625 C 460.800781 108.667969 461.242188 108.460938 461.625 108.140625 C 461.996094 107.863281 462.363281 107.519531 462.796875 107.339844 C 463.179688 107.199219 463.5625 107.183594 463.953125 107.296875 C 464.359375 107.402344 464.703125 107.617188 464.980469 107.929688 C 465.289062 108.289062 465.382812 108.730469 465.414062 109.183594 C 465.503906 110.320312 465.5625 111.765625 466.851562 112.214844 C 467.855469 112.574219 468.589844 111.835938 469.128906 111.097656 C 469.355469 110.792969 469.578125 110.441406 469.914062 110.246094 C 470.34375 109.992188 470.875 110.085938 471.335938 110.195312 C 472.488281 110.464844 473.597656 110.878906 474.78125 110.472656 C 475.335938 110.277344 475.835938 109.976562 476.269531 109.578125 C 476.789062 109.113281 476.023438 108.355469 475.511719 108.816406 C 475.191406 109.121094 474.816406 109.335938 474.394531 109.460938 C 473.972656 109.589844 473.542969 109.613281 473.109375 109.535156 C 472.210938 109.363281 471.316406 108.949219 470.382812 109.023438 C 469.453125 109.09375 468.898438 109.613281 468.378906 110.3125 C 468.089844 110.707031 467.695312 111.425781 467.144531 111.183594 C 466.753906 111.015625 466.625 110.5 466.570312 110.125 C 466.503906 109.675781 466.515625 109.210938 466.453125 108.761719 C 466.347656 107.867188 465.917969 107.171875 465.164062 106.675781 C 464.476562 106.222656 463.722656 106.0625 462.90625 106.203125 C 462.082031 106.347656 461.507812 106.9375 460.847656 107.390625 C 460.589844 107.566406 460.296875 107.746094 459.972656 107.714844 C 459.582031 107.671875 459.324219 107.339844 459.179688 106.996094 C 458.832031 106.164062 458.984375 105.203125 458.714844 104.355469 C 458.445312 103.503906 457.792969 102.820312 457.027344 102.332031 C 456.65625 102.101562 456.273438 101.898438 455.875 101.722656 C 455.417969 101.503906 454.933594 101.273438 454.414062 101.40625 C 453.980469 101.519531 453.6875 101.847656 453.441406 102.195312 C 453.261719 102.445312 453.109375 102.734375 452.863281 102.894531 C 452.363281 103.175781 451.855469 103.199219 451.335938 102.957031 C 451.074219 102.859375 450.859375 102.699219 450.699219 102.472656 C 450.535156 102.246094 450.453125 101.992188 450.449219 101.710938 C 450.433594 101.164062 450.519531 100.636719 450.425781 100.082031 C 450.347656 99.671875 450.195312 99.289062 449.96875 98.9375 C 449.492188 98.179688 448.78125 97.605469 448.050781 97.101562 C 447.246094 96.550781 446.410156 96.042969 445.605469 95.488281 C 443.898438 94.328125 442.238281 93.097656 440.589844 91.855469 C 437.300781 89.371094 434.039062 86.835938 430.511719 84.683594 C 430.082031 84.421875 429.652344 84.171875 429.21875 83.921875 C 428.847656 83.710938 428.375 83.304688 427.941406 83.550781 C 427.800781 83.628906 426.863281 84.664062 426.863281 84.667969 C 426.863281 84.667969 427.144531 84.488281 426.875 84.632812 C 426.792969 84.679688 426.71875 84.734375 426.648438 84.800781 C 426.507812 84.933594 426.382812 85.082031 426.273438 85.246094 C 426.128906 85.453125 426.019531 85.785156 425.792969 85.886719 C 425.28125 86.136719 424.480469 85.757812 424.019531 85.496094 C 423.398438 85.148438 422.609375 84.6875 422.328125 83.992188 C 422.042969 83.277344 422.613281 82.566406 422.902344 81.945312 C 423.316406 81.046875 423.316406 80.175781 422.722656 79.355469 C 422.1875 78.589844 421.472656 78.0625 420.585938 77.777344 C 419.773438 77.523438 418.835938 77.5625 418.164062 78.117188 C 417.691406 78.539062 417.3125 79.035156 417.03125 79.601562 C 417.007812 79.640625 416.984375 79.679688 416.964844 79.71875 C 417.035156 79.582031 417.003906 79.675781 416.964844 79.71875 C 416.929688 79.765625 416.875 79.824219 416.824219 79.875 C 416.730469 79.976562 416.628906 80.074219 416.519531 80.160156 C 416.480469 80.191406 416.4375 80.222656 416.394531 80.246094 C 416.320312 80.292969 416.320312 80.285156 416.328125 80.285156 C 416.398438 80.308594 416.539062 80.375 416.457031 80.285156 C 416.410156 80.246094 416.363281 80.214844 416.308594 80.183594 C 416.1875 80.097656 416.066406 80.003906 415.949219 79.914062 C 415.671875 79.707031 415.394531 79.492188 415.121094 79.277344 C 414.84375 79.058594 414.59375 78.855469 414.339844 78.636719 C 414.136719 78.457031 413.886719 78.277344 413.800781 78.015625 C 413.738281 77.808594 413.867188 77.5 413.960938 77.246094 C 414.097656 76.835938 414.269531 76.4375 414.480469 76.058594 C 414.839844 75.476562 415.238281 74.921875 415.359375 74.234375 C 415.433594 73.804688 415.203125 73.601562 414.875 73.390625 L 414.792969 73.335938 C 414.730469 73.292969 414.847656 73.386719 414.753906 73.304688 C 414.65625 73.222656 414.5625 73.132812 414.476562 73.042969 C 414.199219 72.785156 413.96875 72.492188 413.78125 72.164062 L 413.679688 72.8125 C 415.039062 71.199219 416.035156 69.347656 416.953125 67.457031 L 416.023438 67.457031 C 418.023438 71.230469 420.96875 74.417969 424.273438 77.082031 C 427.664062 79.8125 431.414062 82.054688 435.253906 84.09375 C 437.519531 85.292969 439.777344 86.480469 441.859375 87.988281 C 443.9375 89.496094 445.914062 91.152344 447.953125 92.695312 C 452.164062 95.867188 456.507812 98.863281 460.808594 101.914062 C 462.867188 103.375 464.898438 104.910156 467.105469 106.148438 C 469.269531 107.363281 471.628906 108.109375 473.941406 108.984375 C 474.5 109.195312 475.050781 109.417969 475.597656 109.660156 C 475.726562 109.730469 475.859375 109.746094 476.003906 109.710938 C 476.144531 109.671875 476.253906 109.589844 476.332031 109.464844 C 476.46875 109.238281 476.414062 108.84375 476.140625 108.730469 Z M 476.140625 108.730469 " fill-opacity="1" fill-rule="nonzero"/></g><path fill="#000000" d="M 452.773438 71.722656 C 453.292969 71.527344 453.828125 71.457031 454.378906 71.515625 C 454.8125 71.558594 455.1875 71.117188 455.1875 70.710938 C 455.1875 70.238281 454.816406 69.945312 454.378906 69.902344 C 453.683594 69.835938 453.003906 69.921875 452.347656 70.167969 C 452.132812 70.230469 451.972656 70.359375 451.867188 70.550781 C 451.757812 70.742188 451.730469 70.945312 451.78125 71.160156 C 451.890625 71.554688 452.363281 71.878906 452.773438 71.722656 Z M 452.773438 71.722656 " fill-opacity="1" fill-rule="nonzero"/><path fill="#000000" d="M 455.695312 76.488281 C 456.066406 76.3125 456.453125 76.238281 456.859375 76.273438 C 457.292969 76.3125 457.664062 75.878906 457.664062 75.464844 C 457.660156 75.246094 457.578125 75.058594 457.421875 74.902344 C 457.265625 74.746094 457.078125 74.664062 456.859375 74.660156 C 456.160156 74.628906 455.503906 74.773438 454.882812 75.09375 C 454.488281 75.273438 454.390625 75.84375 454.59375 76.195312 C 454.710938 76.382812 454.875 76.507812 455.089844 76.5625 C 455.304688 76.617188 455.507812 76.59375 455.699219 76.488281 Z M 455.695312 76.488281 " fill-opacity="1" fill-rule="nonzero"/><path fill="#000000" d="M 458.339844 81.261719 C 458.710938 81.128906 459.089844 81.0625 459.480469 81.054688 C 459.703125 81.054688 459.890625 80.976562 460.050781 80.820312 C 460.207031 80.664062 460.285156 80.472656 460.285156 80.25 C 460.285156 80.027344 460.207031 79.835938 460.050781 79.679688 C 459.890625 79.519531 459.703125 79.441406 459.480469 79.441406 C 458.941406 79.449219 458.421875 79.539062 457.914062 79.707031 C 457.699219 79.769531 457.539062 79.898438 457.433594 80.089844 C 457.324219 80.28125 457.296875 80.484375 457.347656 80.699219 C 457.410156 80.910156 457.539062 81.070312 457.730469 81.179688 C 457.921875 81.292969 458.125 81.316406 458.339844 81.261719 Z M 458.339844 81.261719 " fill-opacity="1" fill-rule="nonzero"/><path fill="#000000" d="M 461.613281 86.4375 C 461.976562 86.273438 462.347656 86.125 462.730469 86 C 462.941406 85.9375 463.101562 85.808594 463.210938 85.617188 C 463.320312 85.425781 463.347656 85.222656 463.292969 85.007812 C 463.234375 84.792969 463.105469 84.632812 462.914062 84.523438 C 462.71875 84.414062 462.515625 84.386719 462.300781 84.445312 C 461.789062 84.617188 461.289062 84.816406 460.796875 85.042969 C 460.398438 85.222656 460.304688 85.796875 460.507812 86.144531 C 460.746094 86.554688 461.214844 86.617188 461.613281 86.4375 Z M 461.613281 86.4375 " fill-opacity="1" fill-rule="nonzero"/><path fill="#000000" d="M 422.152344 59.207031 C 423.828125 60.917969 425.039062 62.96875 426.238281 65.023438 C 426.761719 65.921875 428.160156 65.109375 427.636719 64.210938 C 426.367188 62.035156 425.066406 59.871094 423.292969 58.066406 C 422.574219 57.320312 421.425781 58.460938 422.152344 59.207031 Z M 422.152344 59.207031 " fill-opacity="1" fill-rule="nonzero"/><path fill="#000000" d="M 426.707031 77.421875 C 427.460938 76.453125 427.5625 75.191406 427.734375 74.003906 C 427.9375 72.625 428.058594 71.242188 428.101562 69.851562 C 428.136719 68.8125 426.523438 68.8125 426.488281 69.851562 C 426.453125 70.960938 426.375 72.066406 426.230469 73.171875 C 426.164062 73.703125 426.082031 74.234375 425.984375 74.761719 C 425.898438 75.234375 425.867188 75.890625 425.5625 76.28125 C 424.933594 77.09375 426.070312 78.242188 426.707031 77.421875 Z M 426.707031 77.421875 " fill-opacity="1" fill-rule="nonzero"/><path fill="#000000" d="M 444.285156 72.933594 C 445.757812 73.039062 448.1875 73.324219 448.621094 75.082031 C 448.792969 75.925781 448.621094 76.691406 448.105469 77.378906 C 447.320312 78.328125 445.535156 78.226562 444.417969 78.175781 C 443.03125 78.105469 441.683594 77.824219 440.386719 77.335938 C 439.066406 76.839844 437.851562 76.15625 436.742188 75.285156 C 435.632812 74.414062 434.679688 73.398438 433.882812 72.234375 C 432.996094 70.925781 432.332031 69.515625 431.886719 68 C 431.441406 66.484375 431.234375 64.9375 431.269531 63.359375 L 430.519531 63.5625 C 432.96875 69.078125 438.71875 71.515625 444.222656 72.90625 C 444.726562 73.035156 444.941406 72.257812 444.4375 72.128906 C 439.117188 70.78125 433.585938 68.492188 431.214844 63.164062 C 431.046875 62.78125 430.472656 63 430.464844 63.367188 C 430.335938 69.8125 434.15625 75.953125 440.304688 78.171875 C 441.816406 78.714844 443.375 78.996094 444.984375 79.003906 C 446.21875 79.003906 447.792969 78.957031 448.675781 77.957031 C 449.007812 77.546875 449.238281 77.085938 449.371094 76.578125 C 449.503906 76.070312 449.523438 75.554688 449.4375 75.035156 C 448.988281 72.75 446.207031 72.265625 444.285156 72.125 C 443.765625 72.089844 443.769531 72.898438 444.285156 72.933594 Z M 444.285156 72.933594 " fill-opacity="1" fill-rule="nonzero"/><path fill="#000000" d="M 448.066406 80.289062 C 449.214844 79.890625 451.203125 79.367188 451.644531 80.972656 C 452.082031 82.578125 450.210938 83.269531 448.953125 83.644531 C 444.121094 85.054688 439.125 82.265625 437.234375 77.726562 L 436.625 78.085938 C 439.800781 80.953125 444.109375 80.925781 448.105469 80.273438 C 448.566406 80.199219 448.371094 79.5 447.914062 79.574219 C 444.203125 80.179688 440.105469 80.25 437.148438 77.574219 C 436.90625 77.355469 436.390625 77.5625 436.539062 77.929688 C 438.261719 82.054688 442.316406 84.984375 446.882812 84.742188 C 449.035156 84.625 454.023438 83.21875 452.082031 80.136719 C 451.1875 78.703125 449.214844 79.144531 447.898438 79.601562 C 447.457031 79.753906 447.644531 80.457031 448.089844 80.300781 Z M 448.066406 80.289062 " fill-opacity="1" fill-rule="nonzero"/><path fill="#000000" d="M 450.300781 85.691406 C 450.949219 85.34375 452.078125 84.855469 452.386719 85.855469 C 452.699219 86.855469 450.953125 87.523438 450.234375 87.738281 C 447.667969 88.511719 445.011719 87.300781 443.597656 85.101562 L 443.164062 85.539062 C 445.367188 86.910156 447.902344 86.496094 450.238281 85.707031 C 450.628906 85.574219 450.460938 84.953125 450.058594 85.085938 C 447.890625 85.820312 445.542969 86.261719 443.480469 84.980469 C 443.335938 84.902344 443.207031 84.921875 443.09375 85.035156 C 442.976562 85.152344 442.960938 85.28125 443.039062 85.421875 C 444.984375 88.453125 449.160156 89.707031 452.207031 87.46875 C 452.964844 86.910156 453.347656 86.121094 452.824219 85.261719 C 452.171875 84.1875 450.847656 84.660156 449.96875 85.132812 C 449.609375 85.328125 449.925781 85.882812 450.292969 85.6875 Z M 450.300781 85.691406 " fill-opacity="1" fill-rule="nonzero"/></svg>